<svg width="88" height="78" viewBox="0 0 88 78" fill="none" xmlns="http://www.w3.org/2000/svg">
    <path fill-rule="evenodd" clip-rule="evenodd" d="M2.21301 32.7724C8.4235 9.59457 32.3187 -4.20133 55.4965 2.00915C78.7827 8.24866 92.5786 32.1438 86.2598 55.2927C80.0493 78.4705 56.1541 92.2664 32.9763 86.0559C9.79842 79.8454 -3.99747 55.9503 2.21301 32.7724ZM58.0898 74.2117C60.4725 74.8501 62.8361 73.3939 63.4456 71.1195L63.5539 71.1485L74.5238 30.2082C75.1623 27.8254 73.7061 25.4618 71.4316 24.8524L30.4913 13.8824C28.1086 13.244 25.745 14.7002 25.1355 16.9746L14.1656 57.9149C13.5271 60.2977 14.9833 62.6613 17.2578 63.2708L58.0898 74.2117ZM64.944 32.1685L32.3434 23.4332L23.6081 56.0338L56.2087 64.7691L64.944 32.1685Z" fill="#181A20"/>
</svg>
