<svg width="7" height="11" viewBox="0 0 7 11" fill="none" xmlns="http://www.w3.org/2000/svg">
<path d="M6.66115 1.93462V0.899352C6.66115 0.80962 6.55803 0.760066 6.48839 0.814977L0.450884 5.5306C0.399587 5.57049 0.35808 5.62158 0.329527 5.67995C0.300975 5.73832 0.286133 5.80245 0.286133 5.86743C0.286133 5.93242 0.300975 5.99654 0.329527 6.05491C0.35808 6.11329 0.399587 6.16437 0.450884 6.20426L6.48839 10.9199C6.55937 10.9748 6.66115 10.9252 6.66115 10.8355V9.80025C6.66115 9.73462 6.63035 9.67167 6.57946 9.6315L1.75803 5.8681L6.57946 2.10337C6.63035 2.06319 6.66115 2.00024 6.66115 1.93462Z" fill="white"/>
</svg>
