<svg width="7" height="11" viewBox="0 0 7 11" fill="none" xmlns="http://www.w3.org/2000/svg">
<path d="M6.2193 5.53122L0.181802 0.815597C0.166026 0.803177 0.147066 0.795458 0.127101 0.793327C0.107136 0.791197 0.0869744 0.79474 0.0689324 0.803552C0.0508903 0.812363 0.0356996 0.826084 0.0251044 0.84314C0.0145091 0.860195 0.00893917 0.879894 0.0090344 0.899972V1.93524C0.0090344 2.00086 0.0398381 2.06381 0.0907309 2.10399L4.91216 5.86872L0.0907309 9.63345C0.0384988 9.67363 0.0090344 9.73658 0.0090344 9.8022V10.8375C0.0090344 10.9272 0.112159 10.9768 0.181802 10.9218L6.2193 6.20622C6.27062 6.16619 6.31213 6.11499 6.34068 6.05651C6.36923 5.99803 6.38407 5.9338 6.38407 5.86872C6.38407 5.80364 6.36923 5.73942 6.34068 5.68094C6.31213 5.62245 6.27062 5.57125 6.2193 5.53122Z" fill="white"/>
</svg>
